HIERARCHY
ROOT Hips
{
	OFFSET 0.000000 71.427986 0.000000
	CHANNELS 6 Xposition Yposition Zposition Xrotation Yrotation Zrotation
	JOINT Pelvis
	{
		OFFSET 0.000000 0.000000 0.000000
		CHANNELS 3 Xrotation Yrotation Zrotation
		JOINT LeftUpLeg
		{
			OFFSET 6.797100 -2.508499 -1.318700
			CHANNELS 3 Xrotation Yrotation Zrotation
			JOINT LeftLeg
			{
				OFFSET 0.069008 -29.241863 0.690200
				CHANNELS 3 Xrotation Yrotation Zrotation
				JOINT LeftFoot
				{
					OFFSET -0.069008 -29.568123 -0.266800
					CHANNELS 3 Xrotation Yrotation Zrotation
					JOINT LeftToeBase
					{
						OFFSET 3.145500 -8.631000 16.059900
						CHANNELS 3 Xrotation Yrotation Zrotation
						End Site
						{
							OFFSET 0.000000 18.501587 0.000000
						}
					}
				}
			}
			JOINT Left_ShortSleeve
			{
				OFFSET 0.265923 -10.480953 1.153800
				CHANNELS 3 Xrotation Yrotation Zrotation
				End Site
				{
					OFFSET 1.725763 19.823879 0.000000
				}
			}
		}
		JOINT RightUpLeg
		{
			OFFSET -6.797100 -2.508499 -1.318700
			CHANNELS 3 Xrotation Yrotation Zrotation
			JOINT RightLeg
			{
				OFFSET -0.082453 -29.241932 0.688000
				CHANNELS 3 Xrotation Yrotation Zrotation
				JOINT RightFoot
				{
					OFFSET 0.082453 -29.568058 -0.264600
					CHANNELS 3 Xrotation Yrotation Zrotation
					JOINT RightToeBase
					{
						OFFSET -3.115300 -8.682800 16.113400
						CHANNELS 3 Xrotation Yrotation Zrotation
						End Site
						{
							OFFSET 0.000000 18.567114 0.000000
						}
					}
				}
			}
			JOINT Right_ShortSleeve
			{
				OFFSET -0.265923 -10.480953 1.153800
				CHANNELS 3 Xrotation Yrotation Zrotation
				End Site
				{
					OFFSET -1.725766 19.823910 0.000000
				}
			}
		}
	}
	JOINT Spine
	{
		OFFSET 0.000000 13.368103 0.470500
		CHANNELS 3 Xrotation Yrotation Zrotation
		JOINT Spine1
		{
			OFFSET 0.147000 13.837402 0.538800
			CHANNELS 3 Xrotation Yrotation Zrotation
			JOINT Spine2
			{
				OFFSET 0.168000 16.242897 -1.435500
				CHANNELS 3 Xrotation Yrotation Zrotation
				JOINT Neck
				{
					OFFSET 0.217200 18.631500 -1.679100
					CHANNELS 3 Xrotation Yrotation Zrotation
					JOINT Head
					{
						OFFSET 0.000000 6.599396 1.385900
						CHANNELS 3 Xrotation Yrotation Zrotation
						JOINT Hat
						{
							OFFSET -0.532200 27.220596 -10.096100
							CHANNELS 3 Xrotation Yrotation Zrotation
							End Site
							{
								OFFSET 0.000000 22.029861 0.000000
							}
						}
						JOINT HairD
						{
							OFFSET -10.777400 17.437393 -1.325900
							CHANNELS 3 Xrotation Yrotation Zrotation
							JOINT HairD1
							{
								OFFSET -3.290299 -11.051193 1.062200
								CHANNELS 3 Xrotation Yrotation Zrotation
								End Site
								{
									OFFSET 0.000000 11.579437 0.000000
								}
							}
						}
						JOINT HairB
						{
							OFFSET -10.777400 17.437393 1.467900
							CHANNELS 3 Xrotation Yrotation Zrotation
							JOINT HairB1
							{
								OFFSET -1.561200 -12.956299 3.590200
								CHANNELS 3 Xrotation Yrotation Zrotation
								End Site
								{
									OFFSET 0.000000 13.534866 0.000000
								}
							}
						}
						JOINT HairA
						{
							OFFSET 9.713100 17.437393 1.467900
							CHANNELS 3 Xrotation Yrotation Zrotation
							JOINT HairA1
							{
								OFFSET 1.561200 -12.956299 3.590200
								CHANNELS 3 Xrotation Yrotation Zrotation
								End Site
								{
									OFFSET 0.000000 13.534866 0.000000
								}
							}
						}
						JOINT HairC
						{
							OFFSET 9.713100 17.437393 -1.325900
							CHANNELS 3 Xrotation Yrotation Zrotation
							JOINT HairC1
							{
								OFFSET 3.290300 -11.051193 1.062200
								CHANNELS 3 Xrotation Yrotation Zrotation
								End Site
								{
									OFFSET 0.000000 11.579437 0.000000
								}
							}
						}
					}
				}
				JOINT LeftShoulder
				{
					OFFSET 5.101800 15.108002 -2.763700
					CHANNELS 3 Xrotation Yrotation Zrotation
					JOINT LeftArm
					{
						OFFSET 9.825497 2.506317 -1.597400
						CHANNELS 3 Xrotation Yrotation Zrotation
						JOINT LeftForeArm
						{
							OFFSET 21.966244 0.000000 0.000000
							CHANNELS 3 Xrotation Yrotation Zrotation
							JOINT LeftHand
							{
								OFFSET 33.879036 0.000000 0.000000
								CHANNELS 3 Xrotation Yrotation Zrotation
								JOINT LeftHandThumb1
								{
									OFFSET 6.715286 -2.359680 3.363841
									CHANNELS 3 Xrotation Yrotation Zrotation
									JOINT LeftHandThumb2
									{
										OFFSET 2.507072 -1.447464 1.447461
										CHANNELS 3 Xrotation Yrotation Zrotation
										JOINT LeftHandThumb3
										{
											OFFSET 2.898338 -1.673355 1.673357
											CHANNELS 3 Xrotation Yrotation Zrotation
											End Site
											{
												OFFSET -0.295959 3.727692 -0.131651
											}
										}
									}
								}
								JOINT LeftHandIndex1
								{
									OFFSET 14.190811 -0.254547 3.840278
									CHANNELS 3 Xrotation Yrotation Zrotation
									JOINT LeftHandIndex2
									{
										OFFSET 3.551727 0.000000 -0.000000
										CHANNELS 3 Xrotation Yrotation Zrotation
										JOINT LeftHandIndex3
										{
											OFFSET 2.894196 0.000000 0.000000
											CHANNELS 3 Xrotation Yrotation Zrotation
											End Site
											{
												OFFSET -1.000603 2.690872 0.366626
											}
										}
									}
								}
								JOINT LeftHandMiddle1
								{
									OFFSET 13.776489 0.000000 0.000000
									CHANNELS 3 Xrotation Yrotation Zrotation
									JOINT LeftHandMiddle2
									{
										OFFSET 3.438232 0.000000 0.000000
										CHANNELS 3 Xrotation Yrotation Zrotation
										JOINT LeftHandMiddle3
										{
											OFFSET 3.691551 0.000000 0.000000
											CHANNELS 3 Xrotation Yrotation Zrotation
											End Site
											{
												OFFSET -1.082298 3.499527 0.457670
											}
										}
									}
								}
								JOINT LeftHandRing1
								{
									OFFSET 13.966164 -0.268127 -3.067488
									CHANNELS 3 Xrotation Yrotation Zrotation
									JOINT LeftHandRing2
									{
										OFFSET 3.162567 0.000000 0.000000
										CHANNELS 3 Xrotation Yrotation Zrotation
										JOINT LeftHandRing3
										{
											OFFSET 3.324348 0.000000 0.000000
											CHANNELS 3 Xrotation Yrotation Zrotation
											End Site
											{
												OFFSET -0.861900 3.184998 0.405154
											}
										}
									}
								}
								JOINT LeftHandPinky1
								{
									OFFSET 13.131393 -0.168503 -5.746925
									CHANNELS 3 Xrotation Yrotation Zrotation
									JOINT LeftHandPinky2
									{
										OFFSET 2.849182 0.000000 0.000000
										CHANNELS 3 Xrotation Yrotation Zrotation
										JOINT LeftHandPinky3
										{
											OFFSET 2.805038 0.000000 0.000000
											CHANNELS 3 Xrotation Yrotation Zrotation
											End Site
											{
												OFFSET -0.882500 2.642609 0.325652
											}
										}
									}
								}
							}
							JOINT Left_Sleeve
							{
								OFFSET 6.592125 -0.646545 0.805568
								CHANNELS 3 Xrotation Yrotation Zrotation
								End Site
								{
									OFFSET -0.000179 20.275787 -0.000000
								}
							}
						}
					}
				}
				JOINT RightShoulder
				{
					OFFSET -5.731700 15.108002 -2.763700
					CHANNELS 3 Xrotation Yrotation Zrotation
					JOINT RightArm
					{
						OFFSET -9.825497 2.506317 -1.597400
						CHANNELS 3 Xrotation Yrotation Zrotation
						JOINT RightForeArm
						{
							OFFSET -21.966242 0.000000 0.000000
							CHANNELS 3 Xrotation Yrotation Zrotation
							JOINT RightHand
							{
								OFFSET -33.879032 0.000000 0.000000
								CHANNELS 3 Xrotation Yrotation Zrotation
								JOINT RightHandThumb1
								{
									OFFSET -6.715286 -2.359680 3.363841
									CHANNELS 3 Xrotation Yrotation Zrotation
									JOINT RightHandThumb2
									{
										OFFSET -2.507072 -1.447464 1.447461
										CHANNELS 3 Xrotation Yrotation Zrotation
										JOINT RightHandThumb3
										{
											OFFSET -2.898338 -1.673355 1.673357
											CHANNELS 3 Xrotation Yrotation Zrotation
											End Site
											{
												OFFSET 0.295959 3.727692 -0.131651
											}
										}
									}
								}
								JOINT RightHandIndex1
								{
									OFFSET -14.190811 -0.254547 3.840278
									CHANNELS 3 Xrotation Yrotation Zrotation
									JOINT RightHandIndex2
									{
										OFFSET -3.551727 0.000000 -0.000000
										CHANNELS 3 Xrotation Yrotation Zrotation
										JOINT RightHandIndex3
										{
											OFFSET -2.894196 0.000000 0.000000
											CHANNELS 3 Xrotation Yrotation Zrotation
											End Site
											{
												OFFSET 1.000603 2.690872 0.366626
											}
										}
									}
								}
								JOINT RightHandMiddle1
								{
									OFFSET -13.776489 0.000000 0.000000
									CHANNELS 3 Xrotation Yrotation Zrotation
									JOINT RightHandMiddle2
									{
										OFFSET -3.438232 0.000000 0.000000
										CHANNELS 3 Xrotation Yrotation Zrotation
										JOINT RightHandMiddle3
										{
											OFFSET -3.691551 0.000000 0.000000
											CHANNELS 3 Xrotation Yrotation Zrotation
											End Site
											{
												OFFSET 1.082298 3.499527 0.457670
											}
										}
									}
								}
								JOINT RightHandRing1
								{
									OFFSET -13.966164 -0.268127 -3.067488
									CHANNELS 3 Xrotation Yrotation Zrotation
									JOINT RightHandRing2
									{
										OFFSET -3.162567 0.000000 0.000000
										CHANNELS 3 Xrotation Yrotation Zrotation
										JOINT RightHandRing3
										{
											OFFSET -3.324348 0.000000 0.000000
											CHANNELS 3 Xrotation Yrotation Zrotation
											End Site
											{
												OFFSET 0.861900 3.184998 0.405154
											}
										}
									}
								}
								JOINT RightHandPinky1
								{
									OFFSET -13.131393 -0.168503 -5.746925
									CHANNELS 3 Xrotation Yrotation Zrotation
									JOINT RightHandPinky2
									{
										OFFSET -2.849182 0.000000 0.000000
										CHANNELS 3 Xrotation Yrotation Zrotation
										JOINT RightHandPinky3
										{
											OFFSET -2.805038 0.000000 0.000000
											CHANNELS 3 Xrotation Yrotation Zrotation
											End Site
											{
												OFFSET 0.882500 2.642609 0.325652
											}
										}
									}
								}
							}
							JOINT Right_Sleeve
							{
								OFFSET -6.592125 -0.646545 0.805568
								CHANNELS 3 Xrotation Yrotation Zrotation
								End Site
								{
									OFFSET 0.000179 20.275787 -0.000000
								}
							}
						}
					}
				}
				JOINT Bind_Right_JacketString
				{
					OFFSET -3.534800 11.969597 7.200700
					CHANNELS 3 Xrotation Yrotation Zrotation
					JOINT Bind_Right_JacketString1
					{
						OFFSET -0.319900 -6.102600 2.794100
						CHANNELS 3 Xrotation Yrotation Zrotation
						End Site
						{
							OFFSET 0.000000 6.719452 0.000000
						}
					}
				}
				JOINT Bind_Left_JacketString
				{
					OFFSET 2.904800 11.969597 7.200700
					CHANNELS 3 Xrotation Yrotation Zrotation
					JOINT Bind_Left_JacketString1
					{
						OFFSET 0.364800 -5.904503 3.186800
						CHANNELS 3 Xrotation Yrotation Zrotation
						End Site
						{
							OFFSET 0.000000 6.719513 0.000000
						}
					}
				}
				JOINT HairE
				{
					OFFSET 5.915200 17.612701 -11.592200
					CHANNELS 3 Xrotation Yrotation Zrotation
					JOINT HairE1
					{
						OFFSET 0.289200 -7.171898 -1.284500
						CHANNELS 3 Xrotation Yrotation Zrotation
						End Site
						{
							OFFSET 0.000000 7.291756 0.000000
						}
					}
				}
				JOINT HairF
				{
					OFFSET -0.864800 17.612701 -11.592200
					CHANNELS 3 Xrotation Yrotation Zrotation
					JOINT HairF1
					{
						OFFSET 0.000000 -14.087097 -2.127501
						CHANNELS 3 Xrotation Yrotation Zrotation
						End Site
						{
							OFFSET 0.000000 14.246841 0.000000
						}
					}
				}
				JOINT HairG
				{
					OFFSET -8.087700 17.612701 -11.592200
					CHANNELS 3 Xrotation Yrotation Zrotation
					JOINT HairG1
					{
						OFFSET -0.293600 -6.081398 -0.910100
						CHANNELS 3 Xrotation Yrotation Zrotation
						End Site
						{
							OFFSET 0.000000 6.156120 0.000000
						}
					}
				}
			}
		}
	}
	JOINT Pouch
	{
		OFFSET 0.000000 4.394501 10.847300
		CHANNELS 3 Xrotation Yrotation Zrotation
		End Site
		{
			OFFSET 0.000000 21.880577 0.000000
		}
	}
	JOINT Bag
	{
		OFFSET -13.229000 4.813004 -0.593300
		CHANNELS 3 Xrotation Yrotation Zrotation
		End Site
		{
			OFFSET 0.000000 21.880577 0.000000
		}
	}
	JOINT OccupyGuyFacialAnim_Joint
	{
		OFFSET 1.000000 -70.206398 -1.655000
		CHANNELS 3 Xrotation Yrotation Zrotation
		End Site
		{
			OFFSET 0.000000 21.880577 0.000000
		}
	}
}
MOTION
Frames: 4
Frame Time: 0.033333
-1.769270 65.751236 4.335522 -26.160157 -15.522479 7.248281 -0.000001 0.000000 -0.000000 18.950840 18.668234 -13.234277 39.542168 -0.145631 -0.332079 -30.153841 4.740358 3.057192 0.000000 0.000000 -0.000000 0.000000 0.000001 -0.000000 2.291106 -1.577414 -27.831429 52.997518 1.099147 0.327644 -28.105072 -10.411823 9.235346 -0.000000 -0.000002 0.000000 0.000002 0.000001 -0.000000 2.913331 1.161005 0.230324 5.685630 0.558074 7.122987 5.682778 0.512379 7.131254 23.922603 5.309205 -10.313480 -8.306600 13.027927 -28.263256 -0.000001 0.000001 0.000000 -0.000001 0.000001 0.000000 -0.000001 0.000001 0.000001 -0.000001 0.000001 0.000001 -0.000000 -0.000000 0.000000 -0.000001 0.000001 0.000001 -0.000000 -0.000000 0.000000 -0.000001 0.000001 0.000000 -0.000001 0.000001 0.000000 -1.238912 -18.569980 -23.536098 17.670505 -12.797775 -20.993263 -39.975513 -58.718242 -36.335551 -7.708848 -0.861829 -13.219519 -24.327836 11.581045 -3.529125 3.847879 16.663592 4.493478 -0.000000 -0.000000 -0.000006 -5.702560 4.979310 -2.362833 1.690918 4.027085 -11.213695 0.000001 0.000000 -0.000000 -8.080159 10.039684 -19.021151 4.028077 6.863974 -37.226717 0.000001 -0.000001 0.000000 -13.736750 13.623296 -30.326839 3.851684 6.585664 -34.080653 0.000000 -0.000001 -0.000004 -13.241660 13.198785 -42.755707 1.767873 2.165200 -22.112288 0.000001 -0.000003 0.000002 0.000001 -0.000000 -0.000001 -0.390495 18.187658 18.303065 -23.282846 33.164865 39.951590 17.206493 40.280556 -4.613291 -6.402721 -4.933230 20.167518 -31.211683 2.636097 8.628148 -1.491046 -1.610744 -0.920777 -0.000000 -0.000002 0.000003 -10.094471 -2.028375 -12.875427 1.629213 -3.672147 8.944478 0.000000 -0.000000 -0.000002 -2.510324 -15.860387 43.994877 8.613912 -10.039608 72.915869 0.000001 0.000000 -0.000001 -8.634924 -17.030674 53.729816 8.237586 -10.045788 69.195267 -0.000003 -0.000001 0.000001 -14.713969 -20.132220 67.408858 5.469880 -6.559232 57.925509 -0.000002 0.000001 -0.000001 0.000001 -0.000000 0.000001 0.000001 0.000000 0.000000 0.000001 0.000000 0.000000 0.000001 0.000000 0.000000 0.000001 0.000000 0.000000 0.000001 0.000000 0.000000 0.000001 0.000000 0.000000 0.000001 0.000000 0.000000 0.000001 0.000000 0.000000 0.000001 0.000000 0.000000 0.000001 0.000000 0.000000 -0.000001 0.000000 -0.000000 -0.000001 0.000000 -0.000000 -0.000001 0.000000 -0.000000 
-1.796515 66.716522 4.198481 -23.557915 -15.644109 7.266224 -0.000000 0.000001 -0.000000 18.672252 18.926090 -13.357879 34.387236 -0.106455 -0.334818 -27.237864 4.562779 2.958207 0.000000 0.000001 0.000000 -0.000000 -0.000000 0.000001 1.361544 -1.896386 -26.698660 48.830194 1.040820 0.338055 -25.703933 -10.564152 8.902681 -0.000000 -0.000001 0.000000 -0.000000 -0.000001 -0.000001 2.614134 0.884681 0.238799 5.137565 0.357382 6.836825 5.133011 0.321504 6.843767 22.254240 5.949513 -10.174852 -7.644556 13.128969 -27.886097 0.000000 0.000001 -0.000001 0.000000 0.000001 -0.000001 0.000000 0.000001 -0.000000 0.000000 0.000001 -0.000000 0.000000 0.000001 -0.000000 0.000000 0.000001 -0.000000 0.000000 0.000001 -0.000000 0.000000 0.000001 -0.000001 0.000000 0.000001 -0.000001 -0.888180 -18.000142 -22.449684 27.240429 -16.191310 -19.231376 -30.036436 -58.558210 -26.197746 -6.829219 3.750204 -14.243553 -22.650292 15.471266 -2.423416 5.177756 20.733750 5.243027 0.000003 0.000001 -0.000001 -4.428414 5.262234 -6.526240 1.727481 4.202145 -12.324407 0.000000 -0.000001 0.000001 -8.804411 7.944144 -12.232969 3.184168 5.532970 -27.331608 0.000000 0.000003 -0.000001 -14.765149 12.157357 -23.893450 3.084953 5.208295 -24.345441 -0.000001 0.000000 -0.000002 -11.917805 12.015191 -35.972424 1.285006 0.605922 -12.153545 -0.000000 0.000001 0.000003 0.000003 -0.000000 0.000000 -0.222269 18.206720 17.806423 -22.007245 34.215290 40.287085 29.130169 33.929846 -8.873217 -6.426641 -4.558462 19.431132 -29.909214 0.175857 7.607738 -0.496523 -4.227457 -1.642558 -0.000001 -0.000001 0.000000 -8.919729 -2.774035 -9.993118 1.628805 -3.674369 8.960075 0.000001 0.000001 -0.000005 -4.618720 -14.532959 36.031495 7.023909 -9.388992 62.077492 0.000001 0.000001 -0.000002 -10.386671 -16.297159 46.269344 6.688684 -9.291056 58.513486 0.000001 -0.000001 0.000001 -15.196662 -17.732959 59.538657 4.067780 -5.490830 47.065338 -0.000001 0.000001 -0.000003 0.000002 0.000001 -0.000001 0.000002 0.000000 0.000000 -0.000000 0.000000 -0.000000 0.000002 0.000000 0.000000 0.000002 0.000000 0.000000 0.000002 0.000000 0.000000 -0.000000 0.000000 0.000000 0.000002 0.000000 0.000000 0.000002 0.000000 0.000000 0.000002 0.000000 0.000000 -0.000000 0.000000 0.000000 -0.000000 0.000001 -0.000000 -0.000000 0.000001 -0.000000 -0.000000 0.000001 -0.000000 
-1.926783 67.680244 4.056618 -20.712619 -15.783005 7.126498 -0.000000 -0.000000 0.000000 18.452651 19.351649 -13.272735 28.598139 -0.057149 -0.312134 -23.982573 4.245784 2.719821 -0.000000 0.000000 -0.000000 0.000001 -0.000000 0.000001 0.391048 -2.366908 -25.253615 44.246092 0.970080 0.344856 -23.140992 -10.594335 8.467506 -0.000000 0.000001 0.000000 0.000001 -0.000001 -0.000001 2.282904 0.674881 0.306678 4.537508 0.319064 6.501255 4.534998 0.276169 6.507634 19.775332 6.740107 -9.453638 -6.680234 13.131844 -26.808486 -0.000000 -0.000002 0.000000 -0.000000 -0.000002 0.000000 -0.000000 -0.000002 0.000000 -0.000000 -0.000002 0.000000 -0.000000 -0.000001 0.000000 -0.000000 -0.000002 0.000000 -0.000000 -0.000001 0.000000 -0.000000 -0.000002 0.000000 -0.000000 -0.000002 0.000000 -0.527823 -17.070403 -21.875914 34.894350 -18.533153 -18.507101 -22.166515 -58.576030 -18.270983 -6.322862 7.002646 -15.457635 -21.992198 17.035844 -2.008516 5.703916 22.366189 5.520046 0.000001 0.000001 -0.000002 -3.924347 5.315410 -8.194562 1.772626 4.397848 -13.572213 0.000001 0.000002 -0.000003 -8.983045 7.076817 -9.539560 2.913791 4.963487 -23.385507 -0.000000 0.000001 0.000001 -15.194715 11.305268 -21.360636 2.846453 4.624742 -20.462553 -0.000001 0.000000 -0.000001 -11.310399 11.664152 -33.269995 1.168856 -0.037373 -8.174389 0.000001 0.000001 0.000001 -0.000000 0.000000 -0.000001 -0.009731 17.548223 17.958031 -20.142117 33.926564 41.005198 34.565866 30.223806 -9.754125 -6.419967 -5.053886 17.271433 -28.218332 -3.180294 6.317509 0.801280 -7.779415 -2.549964 0.000001 -0.000001 0.000002 -7.347111 -3.561522 -6.082563 1.627728 -3.680419 9.002441 -0.000004 0.000001 0.000000 -6.816776 -12.291794 25.867590 5.197297 -8.125850 48.057614 0.000002 -0.000001 -0.000003 -12.395358 -14.964475 36.667157 4.940853 -7.913072 44.702912 -0.000001 -0.000001 0.000001 -14.890033 -14.911199 49.514135 2.593495 -3.745082 33.019078 0.000000 0.000001 -0.000003 0.000000 0.000001 0.000001 -0.000000 0.000001 -0.000001 -0.000000 0.000000 0.000001 -0.000000 0.000001 0.000001 -0.000000 0.000001 0.000001 -0.000000 0.000001 -0.000001 -0.000000 0.000000 0.000001 -0.000000 0.000001 0.000001 -0.000000 0.000001 0.000001 -0.000000 0.000001 -0.000001 -0.000000 0.000000 0.000001 -0.000000 -0.000000 0.000000 -0.000000 -0.000000 0.000000 -0.000000 -0.000000 0.000000 
-2.169327 68.357201 3.904356 -17.950051 -15.657071 6.790852 -0.000000 -0.000001 -0.000000 17.365881 19.731120 -12.600645 24.389887 -0.018024 -0.247657 -21.513091 3.964544 2.382117 -0.000000 -0.000001 -0.000000 0.000000 0.000000 -0.000000 -0.859656 -3.003976 -23.589291 40.589318 0.906267 0.346474 -21.144628 -10.553178 7.961289 -0.000000 -0.000001 0.000000 -0.000000 0.000002 0.000001 2.036071 0.556918 0.296064 3.979287 0.371999 6.032742 3.977497 0.333417 6.038440 15.363611 7.536923 -7.307647 -4.242941 13.073099 -25.858242 0.000000 -0.000000 -0.000000 0.000000 -0.000000 -0.000000 0.000000 -0.000000 0.000000 0.000000 -0.000000 -0.000000 0.000000 -0.000000 -0.000001 0.000000 -0.000000 -0.000000 0.000000 -0.000000 -0.000001 0.000000 -0.000000 -0.000000 0.000000 -0.000000 -0.000000 0.204014 -15.872130 -20.088657 39.712516 -20.980874 -19.534245 -13.448666 -58.924479 -10.160829 -6.347890 7.223153 -16.002722 -21.992185 17.035836 -2.008520 5.703897 22.366196 5.520060 -0.000001 -0.000000 -0.000002 -3.894101 5.524738 -8.165704 1.832927 4.633229 -15.082014 0.000001 0.000001 -0.000000 -8.983031 7.076813 -9.539560 2.943024 5.030128 -23.840820 0.000003 0.000001 -0.000001 -15.345951 10.926159 -21.395619 2.872583 4.693707 -20.917290 -0.000001 0.000000 -0.000002 -11.605781 11.636608 -33.215357 1.179710 0.036227 -8.626882 0.000000 -0.000000 -0.000001 -0.000000 0.000001 0.000004 0.354875 16.421964 17.747792 -18.587921 31.894487 42.955688 35.390034 28.853294 -9.392886 -6.563366 -5.343565 14.659304 -26.488201 -6.801973 5.043525 2.138700 -11.592776 -3.438601 -0.000002 0.000001 -0.000000 -5.741550 -4.143325 -1.908839 1.629833 -3.691668 9.085591 -0.000002 0.000000 0.000005 -8.310112 -9.615509 15.915150 3.738980 -6.464367 34.130541 -0.000002 -0.000006 -0.000002 -14.035909 -13.242423 27.194567 3.581779 -6.164626 30.986874 0.000003 0.000001 0.000000 -13.700063 -12.649875 39.627699 1.588772 -1.695068 19.043947 -0.000003 0.000003 -0.000001 -0.000001 -0.000000 0.000001 0.000001 0.000000 0.000000 -0.000000 -0.000000 0.000002 0.000001 0.000000 0.000000 0.000001 0.000000 0.000000 0.000001 0.000000 0.000000 -0.000000 -0.000000 0.000002 0.000001 0.000000 0.000000 0.000001 0.000000 0.000000 0.000001 0.000000 0.000000 -0.000000 -0.000000 0.000002 -0.000000 -0.000001 -0.000000 -0.000000 -0.000001 -0.000000 -0.000000 -0.000001 -0.000000 
